# xmcd
#
# Track frame offsets:
#	150
#	14137
#	28876
#	48088
#	68363
#	83348
#	96545
#	115188
#	135089
#	145817
#	159516
#	170515
#	185683
#	204705
#	224033
#	237057
#	252623
#	270622
#	280993
#	298858
#
# Disc length: 4189 seconds
#
# Revision: 2
# Processed by: cddbd v1.5.2PL0 Copyright (c) Steve Scherf et al.
# Submitted via: EasyCDDAExtractor 2010.6.0.0
#
DISCID=2e105b14
DTITLE=Various Artist - Seventies Top 100 Vol. 2
DYEAR=2008
DGENRE=Pop
TTITLE0=Eric Clapton - After Midnight
TTITLE1=Hollies - Long Cool Woman
TTITLE2=Joe Cocker - Feelin' Alright
TTITLE3=Elton John and Kiki Dee - Don't Go Breaking My Heart
TTITLE4=Johnny Wakelin - In Zaire
TTITLE5=Free - My Brother Jake
TTITLE6=Doug Ashdown - Winter In America
TTITLE7=T. Rex - Get It On
TTITLE8=Focus - House Of The King
TTITLE9=Rubettes - Juke Box Jive
TTITLE10=Sammy Davis Jr. - Baretta's Theme
TTITLE11=Minnie Riperton - Lovin' You
TTITLE12=Lou Reed - Walk On The Wild Side
TTITLE13=Murray Head - Superstar
TTITLE14=Tom Jones - She's A Lady
TTITLE15=Earth and Fire - Ruby Is The One
TTITLE16=Left Side - (Like A) Locomotion
TTITLE17=Maureen Mcgovern - The Morning After
TTITLE18=Jackson Five - I'll Be There
TTITLE19=Captain and Tennille - Love Will Keep Us Together
EXTD=
EXTT0=
EXTT1=
EXTT2=
EXTT3=
EXTT4=
EXTT5=
EXTT6=
EXTT7=
EXTT8=
EXTT9=
EXTT10=
EXTT11=
EXTT12=
EXTT13=
EXTT14=
EXTT15=
EXTT16=
EXTT17=
EXTT18=
EXTT19=
PLAYORDER=
